<svg height='300px' width='300px'  fill="#000000" xmlns="http://www.w3.org/2000/svg" xmlns:xlink="http://www.w3.org/1999/xlink" version="1.1" x="0px" y="0px" viewBox="0 0 256 256" enable-background="new 0 0 256 256" xml:space="preserve"><g><rect x="76" y="86" width="9" height="9"></rect><rect x="95" y="86" width="9" height="9"></rect><rect x="114" y="86" width="9" height="9"></rect><polygon points="142,95 142,86 133,86 133,86.058 132,86.065 132,86 133,86 133,95  "></polygon><rect x="152" y="86" width="9" height="9"></rect><rect x="171" y="86" width="9" height="9"></rect><rect x="95" y="181" width="9" height="9"></rect><rect x="76" y="105" width="9" height="9"></rect><rect x="76" y="124" width="9" height="9"></rect><rect x="76" y="162" width="9" height="9"></rect><rect x="76" y="181" width="9" height="9"></rect><rect x="171" y="105" width="9" height="9"></rect><path d="M180,126v-2h-9v2h-55v55h-2v9h2v40h104V126H180z M212,222h-88v-88h88V222z"></path><path d="M95.225,45H35v105h41v2h9v-10h-8.5l0,0H43V53h51.615C94.483,51,94.69,48,95.225,45z"></path><path d="M103.824,52h0.001c0,0,0.001,0.24,0.003,0.239c3.11-3.232,7.263-4.737,11.42-4.737c3.954,0,7.911,1.53,10.984,4.488   c0.024,0.024,8.279,7.996,13.717,13.229l-11.396,11.81c-1.602,1.663-1.044,2.971,1.228,2.971c0.023,0,0.047,0,0.07,0l37.628-0.404   c2.332-0.028,4.189-1.935,4.129-4.266l-0.994-37.605c-0.037-1.412-0.556-2.159-1.319-2.159c-0.496,0-1.096,0.321-1.733,0.984   l-9.31,9.677l-13.716-13.199c-5.038-4.847-11.526-7.257-18.005-7.257c-6.815,0-13.619,2.665-18.717,7.964   c-5.806,6.033-8.098,13.903-6.96,21.591L103.824,52z"></path></g></svg>