<svg height='300px' width='300px'  fill="#000000" xmlns:dc="http://purl.org/dc/elements/1.1/" xmlns:cc="http://creativecommons.org/ns#" xmlns:rdf="http://www.w3.org/1999/02/22-rdf-syntax-ns#" xmlns:svg="http://www.w3.org/2000/svg" xmlns="http://www.w3.org/2000/svg" xmlns:sodipodi="http://sodipodi.sourceforge.net/DTD/sodipodi-0.dtd" xmlns:inkscape="http://www.inkscape.org/namespaces/inkscape" version="1.1" x="0px" y="0px" viewBox="0 0 100 100"><g transform="translate(0,-952.36218)"><path d="m 92.000298,958.36717 c 0.2618,0 0.523401,0.0521 0.7653,0.1523 0.241801,0.1002 0.463601,0.2485 0.6487,0.4336 0.1851,0.1851 0.3333,0.4069 0.4335,0.6488 0.1002,0.2418 0.1522,0.5035 0.1522,0.7653 l 0,55.99693 c 0,0.2617 -0.0521,0.5233 -0.1523,0.7652 -0.1002,0.2418 -0.2484,0.4636 -0.4335,0.6487 -0.1851,0.185 -0.4069,0.3333 -0.6487,0.4334 -0.2418,0.1002 -0.5035,0.1523 -0.7652,0.1523 l -26.003699,0 0,25.9938 c 0,0.2617 -0.0521,0.5234 -0.1523,0.7652 -0.1002,0.2418 -0.2484,0.4636 -0.4335,0.6487 -0.1851,0.1851 -0.4069,0.3333 -0.6487,0.4335 -0.2418,0.1002 -0.5035,0.1522 -0.7652,0.1523 l -55.9968975,0 c -0.2618,0 -0.5234,-0.052 -0.7653,-0.1522 -0.2418,-0.1002 -0.4637,-0.2484 -0.6488,-0.4335 -0.1851,-0.1851 -0.3334,-0.4069 -0.4336,-0.6487 -0.1002,-0.2419 -0.1523,-0.5035 -0.1523,-0.7653 l 0,-55.99693 c 0,-0.2618 0.0521,-0.5235 0.1522,-0.7653 0.1002,-0.2419 0.2485,-0.4638 0.4336,-0.6489 0.1851,-0.1851 0.407,-0.3334 0.6488,-0.4335 0.2419,-0.1002 0.5036,-0.1523 0.7654,-0.1523 l 26.0034005,0 0,-25.9934 c 0,-0.2618 0.0521,-0.5235 0.1522,-0.7654 0.1002,-0.2419 0.2485,-0.4637 0.4336,-0.6488 0.1851,-0.1852 0.406999,-0.3334 0.648799,-0.4336 0.2419,-0.1002 0.503601,-0.1522 0.7654,-0.1522 z" style="text-indent:0;text-transform:none;direction:ltr;block-progression:tb;baseline-shift:baseline;color:#000000;enable-background:accumulate;" fill="#000000" fill-opacity="1" fill-rule="evenodd" stroke="none" marker="none" visibility="visible" display="inline" overflow="visible"></path></g></svg>