<svg height='300px' width='300px'  fill="#000000" xmlns:dc="http://purl.org/dc/elements/1.1/" xmlns:cc="http://creativecommons.org/ns#" xmlns:rdf="http://www.w3.org/1999/02/22-rdf-syntax-ns#" xmlns:svg="http://www.w3.org/2000/svg" xmlns="http://www.w3.org/2000/svg" xmlns:sodipodi="http://sodipodi.sourceforge.net/DTD/sodipodi-0.dtd" xmlns:inkscape="http://www.inkscape.org/namespaces/inkscape" viewBox="0 0 8.4666667 8.4666667" version="1.1" x="0px" y="0px"><g transform="translate(0,-288.53333)"><path style="color:#000000;font-style:normal;font-variant:normal;font-weight:normal;font-stretch:normal;font-size:medium;line-height:normal;font-family:sans-serif;font-variant-ligatures:normal;font-variant-position:normal;font-variant-caps:normal;font-variant-numeric:normal;font-variant-alternates:normal;font-feature-settings:normal;text-indent:0;text-align:start;text-decoration:none;text-decoration-line:none;text-decoration-style:solid;text-decoration-color:#000000;letter-spacing:normal;word-spacing:normal;text-transform:none;writing-mode:lr-tb;direction:ltr;text-orientation:mixed;dominant-baseline:auto;baseline-shift:baseline;text-anchor:start;white-space:normal;shape-padding:0;clip-rule:nonzero;display:inline;overflow:visible;visibility:visible;opacity:1;isolation:auto;mix-blend-mode:normal;color-interpolation:sRGB;color-interpolation-filters:linearRGB;solid-color:#000000;solid-opacity:1;vector-effect:none;fill:#000000;fill-opacity:1;fill-rule:nonzero;stroke:none;stroke-width:0.52916664;stroke-linecap:butt;stroke-linejoin:round;stroke-miterlimit:4;stroke-dasharray:none;stroke-dashoffset:0;stroke-opacity:1;color-rendering:auto;image-rendering:auto;shape-rendering:auto;text-rendering:auto;enable-background:accumulate" d="m 6.8202541,290.17924 -0.3741367,0.37465 c 0.4466828,0.44665 0.6976321,1.05194 0.6976321,1.68362 0,1.31826 -1.0629873,2.38125 -2.38125,2.38125 -1.3182626,0 -2.38125,-1.06299 -2.38125,-2.38125 0,-0.13001 0.011456,-0.25932 0.032557,-0.38705 l 0.5741247,0.57412 0.3741367,-0.37414 -1.2454017,-1.2454 -1.24540167,1.2454 0.37413677,0.37414 0.6449218,-0.64492 c -0.024127,0.15121 -0.03824,0.30419 -0.03824,0.45785 0,1.60425 1.3061712,2.91042 2.9104167,2.91042 1.6042455,0 2.9104167,-1.30617 2.9104167,-2.91042 0,-0.77183 -0.3068743,-1.51253 -0.8526624,-2.05827 z"></path></g></svg>