<svg height='300px' width='300px'  fill="#000000" xmlns="http://www.w3.org/2000/svg" xmlns:xlink="http://www.w3.org/1999/xlink" version="1.1" x="0px" y="0px" viewBox="0 0 256 256" enable-background="new 0 0 256 256" xml:space="preserve"><g><polygon points="66,133 34,133 34,44 122,44 122,77 123,77 123,86 132,86 132,77 130,77 130,36 26,36 26,141 66,141 66,143 75,143    75,134 66,134  "></polygon><rect x="66" y="77" width="9" height="9"></rect><rect x="85" y="77" width="9" height="9"></rect><rect x="104" y="77" width="9" height="9"></rect><rect x="142" y="77" width="9" height="9"></rect><path d="M169.854,79.674c0.011-0.927,0.158-2.674,0.405-2.674H161v9h8.778L169.854,79.674z"></path><rect x="85" y="172" width="9" height="9"></rect><rect x="66" y="96" width="9" height="9"></rect><rect x="66" y="115" width="9" height="9"></rect><rect x="66" y="153" width="9" height="9"></rect><rect x="66" y="172" width="9" height="9"></rect><polygon points="169.658,96 161,96 161,105 169.55,105  "></polygon><path d="M191.276,116.5l-1.191-1.238l-1.286,1.238l-6.231,6.246c-1.033,0.995-2.057,1.254-3.008,2.254h19.414l-0.064-0.317   L191.276,116.5z"></path><path d="M203,152.137V213h-89v-88h59.858c-0.808-1-1.551-1.106-2.19-1.753c-1.055-1.068-2.305-2.885-2.266-6.068L169.43,115H161v2   h-55v55h-2v9h2v40h105v-69.729c-2,0.583-4.943,0.885-7.499,0.885C203.334,152.156,203,152.14,203,152.137z"></path><path d="M222.469,102.191L209.27,88.475l9.676-9.311c1.681-1.617,1.148-2.99-1.184-3.052l-37.617-0.994   c-0.037-0.001-0.074-0.001-0.111-0.001c-2.281,0-4.151,1.835-4.179,4.13l-0.452,37.629c-0.017,1.44,0.492,2.214,1.28,2.214   c0.488,0,1.082-0.297,1.724-0.915l11.843-11.396c5.233,5.438,13.176,13.692,13.199,13.717c5.981,6.214,5.867,16.041-0.174,22.132v0   c-0.088,0.089-0.165,0.185-0.256,0.272c-0.002,0.002-0.003,0.004-0.003,0.004l0.001,0.001l-3.085,2.968   c0.561,0.083,1.123,0.575,1.688,0.618c0.547,0.045,1.096,0.509,1.645,0.509c0.003,0,0.007,0,0.01,0l0,0   c0.167,0,0.334-0.413,0.501-0.413c6.474,0,12.955-2.614,17.988-7.458C232.099,129.184,232.415,112.528,222.469,102.191z"></path></g></svg>